<svg id="Capa_1" enable-background="new 0 0 512 512" height="512" viewBox="0 0 512 512" width="512" xmlns="http://www.w3.org/2000/svg"><g><g><path d="m250.422.04c-130.334 3.774-207.725 147.878-141.813 260.382l147.391 251.578 20-268-20-244c-2.326 0-4.651.013-5.578.04z" fill="#ff7037"/><path d="m261.577.04c-.926-.027-3.251-.04-5.577-.04v512l147.391-251.578c65.912-112.503-11.479-256.608-141.814-260.382z" fill="#ff4c04"/></g><g><path d="m156.517 164.63c0 38.335 21.683 71.606 53.453 88.217h46.03l20-93.85-20-93.85c-54.943 0-99.483 44.54-99.483 99.483z" fill="#9de1f7"/><path d="m256 65.147v187.7h46.03c31.771-16.611 53.453-49.882 53.453-88.217 0-54.943-44.54-99.483-99.483-99.483z" fill="#2fbfef"/></g><g><path d="m225.088 157.882c0 14.37 9.807 26.448 23.092 29.912h-7.295c-17.072 0-30.912 13.84-30.912 30.912v34.135c13.764 7.197 29.419 11.272 46.027 11.272l10-28.614-10-108.529c-17.072.001-30.912 13.84-30.912 30.912z" fill="#6aa8ff"/><path d="m271.115 187.794h-7.295c13.285-3.464 23.092-15.542 23.092-29.912 0-17.072-13.84-30.912-30.912-30.912v137.143c16.608 0 32.263-4.076 46.027-11.272v-34.135c0-17.072-13.84-30.912-30.912-30.912z" fill="#046eff"/></g></g></svg>